<?xml version="1.0" encoding="utf-8"?>
<!-- Generator: Adobe Illustrator 20.1.0, SVG Export Plug-In . SVG Version: 6.00 Build 0)  -->
<svg version="1.1" id="Logo" xmlns="http://www.w3.org/2000/svg" xmlns:xlink="http://www.w3.org/1999/xlink" x="0px" y="0px"
	 viewBox="0 0 1015 200.5" style="enable-background:new 0 0 1015 200.5;" xml:space="preserve">
<style type="text/css">
	.st0{fill:#FFFFFF;}
</style>
<path class="st0" d="M141,49.6C122.9,38,85.6,14.7,78,14.7C67.7,14.7,5.1,56,5.1,56c0,17.8,1.2,31.5,3.7,42.9
	C20.4,91.3,57,67.8,72.4,61.5C80.1,58.3,110.3,47.7,141,49.6z"/>
<path class="st0" d="M141,109.9C123,98.3,85.7,75,78,75c-8.1,0-49.1,25.9-65.7,36.6c2.8,8.3,6.5,16.2,11,23.8
	c2.1,3.5,4.3,7,6.7,10.3c14.8-9.2,32.6-19.8,42.3-23.7C79.6,118.8,110.1,108.1,141,109.9z"/>
<path class="st0" d="M88.9,64c17.3,8.5,47.9,28.1,58.3,34.9c2.4-11.4,3.6-25.1,3.6-42.9c0,0-3.6-2.3-9.1-5.9
	c-22.5,2.2-41.7,9-47.6,11.5C92.6,62.2,90.8,63,88.9,64z"/>
<path class="st0" d="M88.9,124.3c10.1,4.9,24.6,13.7,37.1,21.4c2.4-3.3,4.7-6.7,6.7-10.3c4.5-7.5,8.2-15.5,11-23.8l-2-1.3
	c-22.7,2.2-42,9.1-47.7,11.6C92.5,122.6,90.7,123.4,88.9,124.3z"/>
<path class="st0" d="M78,135.4c-5.1,0-23,10.1-39.8,20.3C49.5,168,63,178.2,78,185.7l0,0c15-7.5,28.5-17.7,39.8-30
	C101,145.6,83,135.4,78,135.4z M85.9,169.9l-7.9-4.2l-7.9,4.2l1.5-8.8l-6.4-6.3l8.9-1.3l4-8l4,8l8.9,1.3l-6.4,6.3L85.9,169.9z"/>
<path class="st0" d="M275.4,121.1c-6.8,9.2-16.5,14.4-27.8,14.4c-20.5,0-35.3-17.3-35.3-36.7s14.8-36.6,35.3-36.6
	c9.6,0,18,3.5,24.1,10.1c0.6,0.6,1,1.4,1,2.2c0,0.8-0.3,1.5-0.8,2.1s-1.3,1-2.1,1c-0.8,0-1.5-0.3-2.1-0.8
	c-5.6-4.7-11.4-8.2-19.9-8.2c-17.2,0-28.3,14.5-28.3,30.3s11.1,30.4,28.3,30.4c11,0,17.4-5.2,23.1-12.2c0.6-0.7,1.4-1.1,2.4-1.1
	c1.7,0,3,1.3,3.1,3C276.1,119.8,275.9,120.5,275.4,121.1z"/>
<path class="st0" d="M297.1,135c-1.9,0-3.5-1.6-3.5-3.5V66.1c0-1.9,1.6-3.5,3.5-3.5s3.4,1.6,3.4,3.5l0,0v65.5
	C300.5,133.4,299,135,297.1,135L297.1,135z"/>
<path class="st0" d="M378.5,67.1l-29.1,66c-0.5,1.2-1.7,1.9-3,1.9c-1.3,0.1-2.6-0.7-3.1-1.9l-29.2-66c-0.2-0.4-0.2-0.8-0.2-1.3
	c0-1.8,1.4-3.2,3.1-3.3l0,0c1.3,0,2.4,0.7,3,1.9l26.2,60l26.3-60c0.5-1.2,1.7-1.9,3-1.9c1.7,0,3.2,1.4,3.2,3.1c0,0.1,0,0.1,0,0.2
	C378.8,66.3,378.7,66.8,378.5,67.1z"/>
<path class="st0" d="M395.8,135c-1.9,0-3.5-1.6-3.5-3.5V66.1c0-1.9,1.6-3.5,3.5-3.5s3.4,1.6,3.4,3.5l0,0v65.5
	C399.2,133.4,397.7,135,395.8,135L395.8,135z"/>
<path class="st0" d="M465.8,134.2H425c-1.9,0-3.5-1.6-3.5-3.5V66.1c0-1.9,1.6-3.5,3.5-3.5s3.5,1.6,3.5,3.5v61.7h37.3
	c1.7-0.1,3.1,1.2,3.2,2.9c0,0.1,0,0.1,0,0.2C469,132.7,467.6,134.1,465.8,134.2L465.8,134.2z"/>
<path class="st0" d="M536.1,135.5c-8.4,0-22-3.4-28.3-10.7c-0.6-0.6-0.9-1.5-1-2.4c0-0.7,0.3-1.5,0.7-2c0.6-0.6,1.4-1,2.2-1.1
	c0.8,0,1.6,0.3,2.2,0.8c6.7,5.8,15.3,9,24.2,9c9.3,0,19.3-3.4,19.3-13c0-7.8-9.2-10.9-24.3-16.5C521.6,96.2,511,92,511,80.1
	c0-12.5,11.6-17.9,25.4-17.9c8.8,0,18.6,3.2,24.3,7.5c0.9,0.6,1.4,1.6,1.4,2.6c0,0.6-0.2,1.2-0.5,1.7c-0.6,0.8-1.5,1.3-2.5,1.4
	c-0.6,0-1.3-0.2-1.8-0.5c-6.4-4-12.5-6.5-20.8-6.5c-9.8,0-18.5,3.5-18.5,11.7c0,8.1,9.6,11.2,22.9,15.9c12.5,4.4,21.7,9,21.7,19.8
	C562.5,129.2,550.4,135.5,536.1,135.5z"/>
<path class="st0" d="M625.9,134.2h-42.4c-1.9,0-3.5-1.6-3.5-3.5V66.9c0-1.9,1.6-3.4,3.5-3.4l0,0h40.8c1.8-0.1,3.3,1.2,3.4,3
	c0.1,1.8-1.2,3.3-3,3.4c-0.1,0-0.3,0-0.4,0H587v24.3h21.1c1.8,0,3.2,1.4,3.2,3.2c0,1.8-1.4,3.2-3.2,3.2H587v27.3h38.9
	c1.8,0,3.2,1.4,3.2,3.2C629.1,132.8,627.6,134.2,625.9,134.2L625.9,134.2z"/>
<path class="st0" d="M684.4,101.6c0,0,0.4,1.1,13.8,28.6c0.2,0.5,0.3,1,0.3,1.5c0,1.8-1.4,3.2-3.1,3.3c0,0,0,0-0.1,0
	c-1.3,0-2.5-0.8-3.1-1.9c-14.8-30.4-14.8-30.6-14.8-30.6h-26v29.1c-0.1,1.9-1.7,3.4-3.6,3.4c-1.9,0-3.4-1.5-3.4-3.3c0,0,0,0,0-0.1
	V66.9c0-1.9,1.5-3.4,3.3-3.4c0,0,0,0,0.1,0h30.3c12.1,0,21,7.4,21,19.6C699.2,92.4,693.5,99.9,684.4,101.6z M678.9,69.8h-27.5v26.8
	h27.5c7.7,0,13.3-5.5,13.3-13.4S686.7,69.8,678.9,69.8L678.9,69.8z"/>
<path class="st0" d="M774,67.1l-29.1,66c-0.5,1.2-1.7,1.9-3,1.9c-1.3,0.1-2.6-0.7-3.1-1.9l-29.2-66c-0.2-0.4-0.2-0.8-0.2-1.3
	c0-1.8,1.4-3.2,3.1-3.3l0,0c1.3,0,2.4,0.7,3,1.9l26.2,60l26.3-60c0.5-1.2,1.7-1.9,3-1.9c1.7,0,3.2,1.4,3.2,3.1c0,0.1,0,0.1,0,0.2
	C774.3,66.3,774.2,66.7,774,67.1z"/>
<path class="st0" d="M791.3,135c-1.9,0-3.5-1.6-3.5-3.5V66.1c0-1.9,1.6-3.5,3.5-3.5s3.4,1.6,3.4,3.5l0,0v65.5
	C794.7,133.4,793.2,135,791.3,135L791.3,135z"/>
<path class="st0" d="M874.2,121.1c-6.8,9.2-16.5,14.4-27.8,14.4c-20.5,0-35.3-17.3-35.3-36.7s14.8-36.6,35.3-36.6
	c9.6,0,18,3.5,24.1,10.1c0.6,0.6,1,1.4,1,2.2c0,0.8-0.3,1.5-0.8,2.1s-1.3,1-2.1,1s-1.5-0.3-2.1-0.8c-5.6-4.7-11.4-8.2-19.9-8.2
	c-17.2,0-28.3,14.5-28.3,30.3s11.1,30.4,28.3,30.4c11,0,17.4-5.2,23.1-12.2c0.6-0.7,1.4-1.1,2.4-1.1c1.7,0,3,1.3,3.1,3
	C875,119.8,874.7,120.5,874.2,121.1z"/>
<path class="st0" d="M938.3,134.2H896c-1.9,0-3.5-1.6-3.5-3.5V66.9c0-1.9,1.6-3.4,3.5-3.4l0,0h40.7c1.8-0.1,3.3,1.2,3.4,3
	c0.1,1.8-1.2,3.3-3,3.4c-0.1,0-0.3,0-0.4,0h-37.3v24.3h21.1c1.8,0,3.2,1.4,3.2,3.2c0,1.8-1.4,3.2-3.2,3.2h-21.1v27.3h39
	c1.8,0,3.2,1.4,3.2,3.2C941.5,132.8,940.1,134.2,938.3,134.2L938.3,134.2z"/>
<path class="st0" d="M979.8,135.5c-8.4,0-22-3.4-28.3-10.7c-0.6-0.6-0.9-1.5-1-2.4c0-0.7,0.3-1.5,0.7-2c0.6-0.6,1.4-1,2.2-1.1
	c0.8,0,1.6,0.3,2.2,0.8c6.7,5.8,15.3,9,24.2,9c9.3,0,19.3-3.4,19.3-13c0-7.8-9.2-10.9-24.3-16.5c-9.6-3.5-20.3-7.7-20.3-19.6
	c0-12.5,11.6-17.9,25.4-17.9c8.8,0,18.6,3.2,24.3,7.5c0.9,0.6,1.4,1.6,1.4,2.6c0,0.6-0.2,1.2-0.5,1.7c-0.6,0.8-1.5,1.3-2.5,1.4
	c-0.6,0-1.3-0.2-1.8-0.5c-6.4-4-12.5-6.5-20.8-6.5c-9.8,0-18.5,3.5-18.5,11.7c0,8.1,9.6,11.2,22.9,15.9c12.5,4.4,21.7,9,21.7,19.8
	C1006.2,129.2,994.1,135.5,979.8,135.5z"/>
</svg>
