<?xml version="1.0" encoding="utf-8"?>
<!-- Generator: Adobe Illustrator 20.1.0, SVG Export Plug-In . SVG Version: 6.00 Build 0)  -->
<svg version="1.1" id="Logo" xmlns="http://www.w3.org/2000/svg" xmlns:xlink="http://www.w3.org/1999/xlink" x="0px" y="0px"
	 viewBox="0 0 714 449.6" style="enable-background:new 0 0 714 449.6;" xml:space="preserve">
<style type="text/css">
	.st0{fill:#FFFFFF;}
	.st1{fill:#A31E23;}
	.st2{fill:#631316;}
	.st3{fill:#1E72A1;}
	.st4{fill:#191919;}
	.st5{fill:#2B2B2B;}
</style>
<polygon class="st0" points="356.6,209.2 366.1,228.5 387.4,231.5 372,246.5 375.6,267.7 356.6,257.7 337.6,267.7 341.2,246.5 
	325.8,231.5 347.1,228.5 "/>
<title>logo</title>
<path class="st1" d="M462.2,58.4C432,39,369.7,0,356.8,0c-17.1,0-121.9,69-121.9,69c0,29.9,2.1,52.6,6.1,71.8
	c19.5-12.7,80.8-52,106.5-62.4C360.4,72.9,410.9,55.3,462.2,58.4z"/>
<path class="st1" d="M462.2,159.4C432,140,369.7,101,356.8,101c-13.6,0-82.1,43.3-110,61.3c4.7,13.9,10.9,27.2,18.4,39.8
	c3.4,5.9,7.2,11.7,11.3,17.2c24.9-15.5,54.6-33.1,70.8-39.8C359.6,174.2,410.5,156.3,462.2,159.4z"/>
<path class="st2" d="M375,82.5c29,14.2,80.1,47,97.6,58.4c4-19.1,6.1-41.9,6.1-71.8c0,0-6-3.9-15.2-9.9c-37.6,3.7-69.7,15-79.6,19.2
	C381.3,79.4,378.3,80.9,375,82.5z"/>
<path class="st2" d="M375,183.5c16.9,8.3,41.2,22.8,62.1,35.8c4.1-5.5,7.8-11.3,11.3-17.2c7.5-12.6,13.6-25.9,18.4-39.8l-3.3-2.1
	c-38,3.7-70.3,15.2-79.8,19.3C381.1,180.6,378.2,181.9,375,183.5z"/>
<path class="st3" d="M356.8,202c-8.5,0-38.5,16.9-66.6,34c19,20.6,41.5,37.7,66.6,50.2l0,0c25.1-12.6,47.6-29.6,66.6-50.2
	C395.3,219,365.3,202,356.8,202z M370,259.6l-13.2-7l-13.2,7l2.5-14.8l-10.7-10.5l14.8-2.2l6.6-13.5l6.6,13.4l14.8,2.2l-10.7,10.5
	L370,259.6z"/>
<path class="st4" d="M56.8,387.9c-6.1,8.3-14.8,13-25,13c-18.4,0-31.8-15.5-31.8-33S13.4,335,31.8,335c8.7,0,16.2,3.2,21.7,9.1
	c0.5,0.5,0.9,1.2,0.9,2c0,0.7-0.3,1.4-0.8,1.9s-1.2,0.9-1.9,0.9s-1.4-0.3-1.9-0.8c-5.1-4.2-10.2-7.4-17.9-7.4
	c-15.5,0-25.5,13.1-25.5,27.3s10,27.4,25.5,27.4c9.9,0,15.6-4.7,20.8-11c0.5-0.6,1.3-1,2.1-1c1.5,0,2.7,1.2,2.8,2.7
	C57.5,386.7,57.2,387.4,56.8,387.9z"/>
<path class="st4" d="M76.3,400.4c-1.7,0-3.1-1.4-3.1-3.2v-58.9c0-1.7,1.4-3.1,3.1-3.2c1.7,0,3.1,1.4,3.1,3.1l0,0v58.9
	C79.4,399,78,400.4,76.3,400.4L76.3,400.4z"/>
<path class="st4" d="M149.5,339.3l-26.1,59.3c-0.5,1-1.5,1.7-2.7,1.7c-1.2,0.1-2.3-0.6-2.8-1.7l-26.2-59.3c-0.2-0.4-0.2-0.8-0.2-1.2
	c-0.1-1.6,1.2-2.9,2.8-3h0.1c1.1,0,2.2,0.7,2.7,1.7l23.6,54l23.7-54c0.5-1,1.5-1.7,2.7-1.7c1.6,0,2.8,1.2,2.9,2.8c0,0.1,0,0.1,0,0.2
	C149.8,338.6,149.7,339,149.5,339.3z"/>
<path class="st4" d="M165,400.4c-1.7,0-3.1-1.4-3.1-3.2v-58.9c0-1.7,1.4-3.1,3.1-3.2c1.7,0,3.1,1.4,3,3.1l0,0v58.9
	C168.1,399,166.7,400.4,165,400.4L165,400.4z"/>
<path class="st4" d="M228,399.6h-36.7c-1.7,0-3.1-1.4-3.1-3.2v-58.1c0-1.7,1.4-3.2,3.1-3.2c1.7,0,3.2,1.4,3.2,3.1l0,0v55.5H228
	c1.5-0.1,2.8,1.1,2.9,2.6c0,0.1,0,0.1,0,0.2C230.9,398.3,229.7,399.6,228,399.6C228.1,399.6,228,399.6,228,399.6z"/>
<path class="st4" d="M291.3,400.9c-7.5,0-19.8-3-25.5-9.6c-0.5-0.6-0.8-1.3-0.9-2.1c0-0.7,0.2-1.3,0.7-1.8c0.5-0.6,1.2-1,2-1
	c0.7,0,1.4,0.3,2,0.8c6,5.3,13.8,8.1,21.8,8.1c8.4,0,17.4-3,17.4-11.7c0-7.1-8.3-9.8-21.9-14.8c-8.7-3.2-18.2-7-18.2-17.7
	c0-11.3,10.4-16.1,22.8-16.1c7.9,0,16.7,2.9,21.9,6.8c0.8,0.6,1.2,1.4,1.2,2.4c0,0.5-0.2,1.1-0.5,1.5c-0.5,0.7-1.4,1.2-2.3,1.2
	c-0.6,0-1.1-0.2-1.6-0.5c-5.7-3.6-11.3-5.8-18.7-5.8c-8.8,0-16.6,3.2-16.6,10.5s8.7,10.1,20.6,14.3c11.3,3.9,19.6,8.1,19.6,17.8
	C315,395.1,304.2,400.9,291.3,400.9z"/>
<path class="st4" d="M372,399.6h-38.1c-1.7,0-3.1-1.4-3.1-3.2v-57.3c0-1.7,1.4-3.1,3.1-3l0,0h36.6c1.6,0,2.9,1.3,2.9,2.9
	s-1.3,2.9-2.9,2.9l0,0H337v21.8h19c1.6,0,2.9,1.3,2.9,2.9s-1.3,2.8-2.9,2.9h-19V394h35c1.6,0,2.9,1.3,2.9,2.9
	C374.9,398.3,373.6,399.6,372,399.6L372,399.6L372,399.6z"/>
<path class="st4" d="M424.7,370.3c0,0,0.4,1,12.4,25.8c0.2,0.4,0.3,0.9,0.3,1.3c0.1,1.6-1.2,2.9-2.7,3h-0.1c-1.2,0-2.2-0.7-2.8-1.7
	c-13.4-27.4-13.4-27.5-13.4-27.5H395v26.1c-0.1,1.7-1.5,3.1-3.2,3c-1.7,0-3-1.3-3-2.9v-0.1v-58.2c0-1.7,1.3-3,2.9-3h0.1H419
	c10.9,0,18.9,6.7,18.9,17.7C437.9,362,432.8,368.8,424.7,370.3z M419.7,341.7H395v24.1h24.7c7,0,11.9-5,11.9-12
	S426.7,341.7,419.7,341.7L419.7,341.7z"/>
<path class="st4" d="M505.2,339.3L479,398.7c-0.5,1-1.5,1.7-2.7,1.7c-1.2,0.1-2.3-0.6-2.8-1.7l-26.2-59.3c-0.2-0.4-0.2-0.8-0.2-1.2
	c-0.1-1.6,1.2-2.9,2.8-3h0.1c1.1,0,2.2,0.7,2.7,1.7l23.6,54l23.7-54c0.5-1,1.5-1.7,2.7-1.7c1.6,0,2.8,1.2,2.9,2.8c0,0.1,0,0.1,0,0.2
	C505.5,338.6,505.4,339,505.2,339.3z"/>
<path class="st4" d="M520.8,400.4c-1.7,0-3.1-1.4-3.2-3.2v-58.9c0-1.7,1.4-3.1,3.2-3.2c1.7,0,3.1,1.4,3,3.1l0,0v58.9
	C523.8,399,522.5,400.4,520.8,400.4L520.8,400.4z"/>
<path class="st4" d="M595.4,387.9c-6.1,8.3-14.8,13-25,13c-18.4,0-31.8-15.5-31.8-33S552,335,570.4,335c8.7,0,16.2,3.2,21.7,9.1
	c0.5,0.5,0.9,1.2,0.9,2c0,0.7-0.3,1.4-0.8,1.9s-1.2,0.9-1.9,0.9s-1.4-0.3-1.9-0.8c-5.1-4.2-10.2-7.4-17.9-7.4
	c-15.5,0-25.5,13.1-25.5,27.3s10,27.4,25.5,27.4c9.9,0,15.7-4.7,20.8-11c0.5-0.6,1.3-1,2.1-1c1.5,0,2.7,1.2,2.8,2.7
	C596.1,386.7,595.8,387.4,595.4,387.9z"/>
<path class="st4" d="M653,399.6h-38.1c-1.7,0-3.1-1.4-3.2-3.2v-57.3c0-1.7,1.4-3.1,3.1-3l0,0h36.6c1.6,0,2.9,1.3,2.9,2.9
	s-1.3,2.9-2.9,2.9l0,0H618v21.8h19c1.6,0,2.9,1.3,2.9,2.9s-1.3,2.9-2.9,2.9l0,0h-19V394h35c1.6,0,2.9,1.3,2.9,2.9
	S654.6,399.6,653,399.6L653,399.6L653,399.6z"/>
<path class="st4" d="M690.3,400.9c-7.5,0-19.8-3-25.5-9.6c-0.5-0.6-0.8-1.3-0.9-2.1c0-0.7,0.2-1.3,0.7-1.8c0.5-0.6,1.2-1,2-1
	c0.7,0,1.4,0.3,2,0.8c6,5.3,13.8,8.1,21.8,8.1c8.4,0,17.4-3,17.4-11.7c0-7.1-8.3-9.8-21.8-14.8c-8.7-3.2-18.2-7-18.2-17.7
	c0-11.3,10.4-16.1,22.8-16.1c7.9,0,16.7,2.9,21.8,6.8c0.8,0.6,1.2,1.4,1.2,2.4c0,0.5-0.2,1.1-0.5,1.5c-0.5,0.7-1.4,1.2-2.3,1.2
	c-0.6,0-1.1-0.2-1.6-0.5c-5.7-3.6-11.3-5.8-18.7-5.8c-8.8,0-16.6,3.2-16.6,10.5s8.7,10.1,20.6,14.3c11.3,3.9,19.6,8.1,19.6,17.8
	C714,395.1,703.2,400.9,690.3,400.9z"/>
<path class="st5" d="M95.6,449.3c-0.1,0.1-0.3,0.1-0.5,0.1c-0.5,0-0.9-0.3-1.1-0.7l-3.2-7.1h-13l-3.2,7c-0.2,0.4-0.6,0.7-1.1,0.7
	c-0.6,0-1.2-0.5-1.2-1.2c0-0.2,0-0.3,0.1-0.5l10.8-23.7c0.2-0.6,0.9-0.9,1.5-0.6c0.3,0.1,0.5,0.3,0.6,0.6l10.8,23.7
	c0.1,0.2,0.1,0.3,0.1,0.5C96.3,448.7,96,449.1,95.6,449.3z M84.3,427.3l-5.5,12.2h11L84.3,427.3z"/>
<path class="st5" d="M123.9,444.4c-2.3,3.3-6,5.2-10,5.2c-7.4,0-12.7-6.2-12.7-13.2c-0.1-7.1,5.5-13,12.6-13.2h0.1
	c3.3-0.1,6.4,1.2,8.7,3.6c0.2,0.2,0.3,0.5,0.3,0.8s-0.1,0.6-0.3,0.8c-0.2,0.2-0.5,0.3-0.8,0.3s-0.5-0.1-0.8-0.3c-2-1.7-4.1-3-7.2-3
	c-6.2,0-10.2,5.2-10.2,10.9s4,11,10.2,11c4,0,6.3-1.9,8.3-4.4c0.2-0.2,0.5-0.4,0.8-0.4c0.6,0,1.1,0.5,1.1,1.1
	C124.2,443.9,124.1,444.2,123.9,444.4z"/>
<path class="st5" d="M153,444.4c-2.3,3.3-6,5.2-10,5.2c-7.4,0-12.7-6.2-12.7-13.2c-0.1-7.1,5.5-13,12.6-13.2h0.1
	c3.3-0.1,6.4,1.2,8.7,3.6c0.2,0.2,0.3,0.5,0.3,0.8s-0.1,0.6-0.3,0.8c-0.2,0.2-0.5,0.3-0.8,0.3s-0.5-0.1-0.8-0.3c-2-1.7-4.1-3-7.2-3
	c-6.2,0-10.2,5.2-10.2,10.9s4,11,10.2,11c4,0,6.3-1.9,8.3-4.4c0.2-0.2,0.5-0.4,0.8-0.4c0.6,0,1.1,0.5,1.1,1.1
	C153.2,443.9,153.2,444.2,153,444.4z"/>
<path class="st5" d="M172.1,449.6c-7.4,0-12.8-6.2-12.8-13.2c-0.1-7.1,5.5-13,12.7-13.2c0,0,0,0,0.1,0c7.4,0,12.7,6.2,12.7,13.2
	S179.5,449.6,172.1,449.6z M172.1,425.5c-6.1,0-10.3,5.2-10.3,10.9s4.1,11,10.3,11s10.2-5.2,10.2-11S178.2,425.5,172.1,425.5z"/>
<path class="st5" d="M201.9,449.6c-6.2,0-9.9-4.1-9.9-10.6v-14.4c0-0.7,0.6-1.3,1.3-1.3s1.2,0.6,1.2,1.3l0,0v14.9
	c0,4.7,2.6,7.9,7.4,7.9s7.4-3.2,7.4-7.9v-14.9c0-0.7,0.6-1.3,1.3-1.3s1.2,0.6,1.2,1.3l0,0V439C211.8,445.5,208.1,449.6,201.9,449.6z
	"/>
<path class="st5" d="M239.5,449.4c-0.4,0.1-0.8-0.1-1-0.5l-15-21.1v20.3c0,0.7-0.6,1.2-1.2,1.2c-0.6,0-1.2-0.5-1.2-1.2v-23.6
	c0-0.7,0.5-1.2,1.2-1.2c0.4,0,0.8,0.2,1,0.5c0,0,12.2,17.5,15,21v-20.3c0-0.7,0.5-1.2,1.2-1.2s1.2,0.6,1.2,1.2v23.7
	C240.7,448.9,240.2,449.4,239.5,449.4L239.5,449.4z"/>
<path class="st5" d="M267,426h-8v22.2c0,0.7-0.6,1.3-1.3,1.3c-0.7,0-1.3-0.6-1.3-1.3l0,0V426h-8c-0.6,0.1-1.2-0.4-1.3-1
	s0.4-1.2,1-1.3c0.1,0,0.1,0,0.2,0H267c0.6-0.1,1.2,0.4,1.3,1c0.1,0.6-0.4,1.2-1,1.3C267.2,426,267.1,426,267,426z"/>
<path class="st5" d="M295.2,449.3c-0.1,0.1-0.3,0.1-0.5,0.1c-0.5,0-0.9-0.3-1.1-0.7l-3.2-7.1h-13l-3.2,7c-0.2,0.4-0.6,0.7-1.1,0.7
	c-0.6,0-1.2-0.5-1.2-1.2c0-0.2,0-0.3,0.1-0.5l10.8-23.7c0.2-0.6,0.9-0.9,1.5-0.6c0.3,0.1,0.5,0.3,0.6,0.6l10.8,23.7
	c0.1,0.2,0.1,0.3,0.1,0.5C295.9,448.7,295.7,449.1,295.2,449.3z M284,427.3l-5.5,12.2h11L284,427.3z"/>
<path class="st5" d="M313.6,449.1h-9.4c-0.7,0-1.3-0.6-1.3-1.3v-22.9c0-0.7,0.6-1.2,1.3-1.2l0,0h8.5c4.4,0,7.4,2.6,7.4,6.3
	c0,2.3-1.4,4.5-3.5,5.5c3,0.8,5,3.4,5.1,6.5C321.7,445.8,318.9,449.1,313.6,449.1z M313,425.9h-7.6v8.7h7.6c2.4,0,4.3-1.9,4.3-4.3
	C317.4,427.9,315.4,425.9,313,425.9L313,425.9z M314.4,436.8h-8.9v10h8.9c3,0,4.8-2,4.8-5c0.1-2.6-1.9-4.9-4.6-5
	C314.6,436.9,314.5,436.8,314.4,436.8L314.4,436.8z"/>
<path class="st5" d="M330.2,449.4c-0.7,0-1.3-0.6-1.3-1.3v-23.5c0-0.7,0.6-1.3,1.3-1.3c0.7,0,1.2,0.6,1.2,1.3l0,0v23.5
	C331.5,448.8,330.9,449.4,330.2,449.4L330.2,449.4z"/>
<path class="st5" d="M357.3,449.1h-14.7c-0.7,0-1.3-0.6-1.3-1.3v-23.2c0-0.7,0.6-1.3,1.3-1.3c0.7,0,1.3,0.6,1.3,1.3l0,0v22.2h13.4
	c0.6,0,1.1,0.4,1.1,1c0,0,0,0,0,0.1C358.5,448.6,358,449.1,357.3,449.1L357.3,449.1z"/>
<path class="st5" d="M366.9,449.4c-0.7,0-1.3-0.6-1.3-1.3v-23.5c0-0.7,0.6-1.3,1.3-1.3c0.7,0,1.2,0.6,1.2,1.3v23.5
	C368,448.8,367.5,449.4,366.9,449.4z"/>
<path class="st5" d="M394.4,426h-8v22.2c0,0.7-0.6,1.3-1.3,1.3s-1.3-0.6-1.3-1.3V426h-8c-0.6,0.1-1.2-0.4-1.3-1
	c-0.1-0.6,0.4-1.2,1-1.3c0.1,0,0.1,0,0.2,0h18.5c0.6-0.1,1.2,0.4,1.3,1c0.1,0.6-0.4,1.2-1,1.3C394.6,426,394.5,426,394.4,426
	L394.4,426z"/>
<path class="st5" d="M419.3,425.2l-8.7,11.8v11.1c0,0.7-0.6,1.3-1.3,1.3c-0.7,0-1.2-0.6-1.2-1.3l0,0V437l-8.8-11.8
	c-0.1-0.2-0.2-0.4-0.2-0.7c0-0.4,0.2-0.7,0.5-0.9c0.5-0.4,1.2-0.3,1.6,0.2l0,0l8.2,11.1l8.2-11.1c0.2-0.3,0.6-0.5,0.9-0.5
	s0.5,0.1,0.7,0.3C419.6,424,419.7,424.7,419.3,425.2L419.3,425.2z"/>
<path class="st5" d="M440,449.4c-0.7,0-1.3-0.6-1.3-1.3v-23.5c0-0.7,0.6-1.3,1.3-1.3c0.7,0,1.2,0.6,1.2,1.3l0,0v23.5
	C441.3,448.8,440.7,449.4,440,449.4L440,449.4z"/>
<path class="st5" d="M469.6,449.4c-0.4,0.1-0.8-0.1-1-0.5l-15-21.1v20.3c0,0.7-0.6,1.2-1.2,1.2s-1.2-0.5-1.2-1.2v-23.6
	c0-0.7,0.5-1.2,1.2-1.2c0.4,0,0.8,0.2,1,0.5c0,0,12.2,17.5,15,21v-20.3c0-0.7,0.5-1.2,1.2-1.2s1.2,0.6,1.2,1.2v23.7
	C470.8,448.9,470.2,449.4,469.6,449.4L469.6,449.4z"/>
<path class="st5" d="M513.6,449.3c-0.1,0.1-0.3,0.1-0.5,0.1c-0.5,0-0.9-0.3-1.1-0.7l-3.2-7.1h-13l-3.2,7c-0.2,0.4-0.6,0.7-1.1,0.7
	c-0.2,0-0.3,0-0.5-0.1c-0.4-0.2-0.7-0.6-0.7-1.1c0-0.2,0-0.3,0.1-0.5l10.8-23.7c0.3-0.6,0.9-0.9,1.5-0.6c0.3,0.1,0.5,0.3,0.6,0.6
	l10.8,23.7c0.1,0.2,0.1,0.3,0.1,0.5C514.3,448.7,514,449.1,513.6,449.3z M502.4,427.3l-5.5,12.2h11L502.4,427.3z"/>
<path class="st5" d="M541.9,444.4c-2.3,3.3-6,5.2-10,5.2c-7.4,0-12.7-6.2-12.7-13.2c-0.1-7.1,5.5-13,12.6-13.2h0.1
	c3.3-0.1,6.4,1.2,8.7,3.6c0.2,0.2,0.3,0.5,0.3,0.8s-0.1,0.6-0.3,0.8c-0.2,0.2-0.5,0.3-0.8,0.3s-0.5-0.1-0.8-0.3c-2-1.7-4.1-3-7.2-3
	c-6.2,0-10.2,5.2-10.2,10.9s4,11,10.2,11c4,0,6.3-1.9,8.3-4.4c0.2-0.2,0.5-0.4,0.8-0.4c0.6,0,1.1,0.5,1.1,1.1
	C542.2,443.9,542.1,444.2,541.9,444.4z"/>
<path class="st5" d="M566.8,426h-8v22.2c0,0.7-0.6,1.3-1.3,1.3s-1.3-0.6-1.3-1.3V426h-8c-0.6-0.1-1.1-0.6-1-1.3c0.1-0.6,0.5-1,1-1
	h18.6c0.6-0.1,1.2,0.4,1.3,1s-0.4,1.2-1,1.3C567,426,566.9,426,566.8,426L566.8,426z"/>
<path class="st5" d="M576,449.4c-0.7,0-1.3-0.6-1.3-1.3v-23.5c0-0.7,0.6-1.3,1.3-1.3s1.2,0.6,1.2,1.3l0,0v23.5
	C577.2,448.8,576.6,449.4,576,449.4L576,449.4z"/>
<path class="st5" d="M597.8,449.6c-7.4,0-12.8-6.2-12.8-13.2c-0.1-7.1,5.5-13,12.7-13.2c0,0,0,0,0.1,0c7.4,0,12.7,6.2,12.7,13.2
	S605.1,449.6,597.8,449.6z M597.8,425.5c-6.1,0-10.3,5.2-10.3,10.9s4.1,11,10.3,11s10.2-5.2,10.2-11S603.9,425.5,597.8,425.5z"/>
<path class="st5" d="M636.6,449.4c-0.4,0.1-0.8-0.1-1-0.5l-15-21.1v20.3c0,0.7-0.6,1.2-1.2,1.2c-0.6,0-1.2-0.5-1.2-1.2v-23.6
	c0-0.7,0.5-1.2,1.2-1.2c0.4,0,0.8,0.2,1,0.5c0,0,12.2,17.5,15,21v-20.3c0-0.7,0.5-1.2,1.2-1.2s1.2,0.6,1.2,1.2v23.7
	C637.8,448.9,637.3,449.4,636.6,449.4L636.6,449.4z"/>
</svg>
